<svg width="513" height="417" viewBox="0 0 513 417" fill="none" xmlns="http://www.w3.org/2000/svg">
<path opacity="0.25" d="M0 377.5C0 361.76 12.7599 349 28.5 349C44.2401 349 57 361.76 57 377.5V417H0V377.5Z" fill="#FAFAFA"/>
<path opacity="0.5" d="M36 329C36 294.206 64.2061 266 99 266C133.794 266 162 294.206 162 329V417H36V329Z" fill="#FAFAFA"/>
<path opacity="0.75" d="M106 271.5C106 213.786 152.786 167 210.5 167C268.214 167 315 213.786 315 271.5V417H106V271.5Z" fill="#FAFAFA"/>
<path d="M211 151C211 67.605 278.605 0 362 0C445.395 0 513 67.605 513 151V417H211V151Z" fill="#FAFAFA"/>
</svg>
