<svg width="92" height="78" viewBox="0 0 92 78" fill="none" xmlns="http://www.w3.org/2000/svg">
<path d="M42.3169 24.1186C42.4938 24.1186 42.669 24.0836 42.8325 24.0157C42.9959 23.9477 43.1445 23.8481 43.2696 23.7225C43.3947 23.597 43.4939 23.4479 43.5616 23.2839C43.6293 23.1198 43.6642 22.9439 43.6642 22.7664V21.0175C43.6642 20.6588 43.5222 20.3149 43.2696 20.0613C43.0169 19.8077 42.6742 19.6652 42.3169 19.6652C41.9596 19.6652 41.6169 19.8077 41.3642 20.0613C41.1116 20.3149 40.9696 20.6588 40.9696 21.0175V22.7628C40.9692 22.9406 41.0037 23.1169 41.0712 23.2814C41.1387 23.4458 41.2378 23.5953 41.363 23.7213C41.4881 23.8472 41.6368 23.9471 41.8005 24.0153C41.9642 24.0835 42.1397 24.1186 42.3169 24.1186ZM87.5295 44.4077H82.0848V41.732C82.0834 40.4808 81.5873 39.2812 80.7057 38.3965C79.8239 37.5119 78.6286 37.0146 77.3819 37.0136H62.896C61.6497 37.015 60.4548 37.5126 59.5734 38.3972C58.6921 39.2817 58.1964 40.4811 58.195 41.732V44.4077H52.752C52.1391 44.4076 51.5331 44.5372 50.9736 44.7881L49.4844 42.4064C49.2055 41.9622 48.7692 41.6408 48.2634 41.5069C47.7576 41.3731 47.2201 41.4368 46.7593 41.6852L45.9545 40.4898C47.6622 39.0723 49.0374 37.2942 49.9819 35.2822C50.9265 33.2702 51.4172 31.0738 51.4191 28.8497H52.4861C53.4591 28.8487 54.392 28.46 55.0795 27.7689C55.767 27.0778 56.153 26.141 56.1525 25.1643V21.5403C56.1515 20.5647 55.765 19.6292 55.0776 18.9393C54.3902 18.2494 53.4582 17.8614 52.4861 17.8604H51.4191V16.4379C51.4196 15.8543 51.247 15.2837 50.9233 14.7989C51.2489 14.029 51.4175 13.2014 51.4191 12.3649V2.25374C51.4186 1.65616 51.1819 1.08319 50.7609 0.660633C50.3399 0.238078 49.769 0.000477493 49.1736 0H28.0861C24.1665 0 21.2384 3.83676 21.2384 7.26786V17.8658H20.1714C19.1994 17.8673 18.2677 18.2554 17.5804 18.9452C16.8931 19.635 16.5064 20.5702 16.505 21.5457V25.1643C16.5064 26.1399 16.8931 27.075 17.5804 27.7649C18.2677 28.4547 19.1994 28.8428 20.1714 28.8443H21.2384C21.2414 31.0901 21.7427 33.3072 22.7059 35.3343C23.6692 37.3615 25.0702 39.1478 26.8071 40.5637L26.0077 41.7735C25.5809 41.5376 25.0928 41.4371 24.6078 41.4854C24.1229 41.5337 23.664 41.7284 23.2916 42.0439L19.6827 45.0549C19.5497 45.1698 19.4293 45.2985 19.3235 45.439L11.5632 46.867L11.4841 46.885C5.61902 48.3274 1.1874 53.2766 0.45448 59.2012C0.438312 59.3328 0.422145 59.4645 0.411367 59.5871L0 63.7772C0 63.8205 0 63.8637 0 63.907V71.2308C0.00189895 73.0224 0.711491 74.7402 1.97323 76.0077C3.23496 77.2751 4.94589 77.9886 6.73097 77.992H51.7891C51.9038 77.9917 52.0179 77.9765 52.1286 77.9469C52.3351 77.9767 52.5434 77.9918 52.752 77.992H87.5295C88.6917 77.991 89.806 77.5272 90.6278 76.7024C91.4496 75.8776 91.9117 74.7592 91.9127 73.5927V48.807C91.9112 47.6406 91.449 46.5225 90.6273 45.6978C89.8056 44.8731 88.6916 44.4091 87.5295 44.4077ZM51.4227 20.5703H52.4897C52.6173 20.5703 52.7437 20.5956 52.8616 20.6446C52.9795 20.6936 53.0867 20.7654 53.1769 20.856C53.2671 20.9466 53.3387 21.0541 53.3876 21.1725C53.4364 21.2908 53.4615 21.4176 53.4615 21.5457V25.1643C53.4615 25.2924 53.4364 25.4193 53.3876 25.5376C53.3387 25.656 53.2671 25.7635 53.1769 25.8541C53.0867 25.9446 52.9795 26.0165 52.8616 26.0655C52.7437 26.1145 52.6173 26.1398 52.4897 26.1398H51.4227V20.5703ZM21.2438 26.1452H20.1767C19.9191 26.1447 19.6722 26.0418 19.4901 25.859C19.3079 25.6761 19.2054 25.4283 19.2049 25.1698V21.5457C19.2054 21.2872 19.3079 21.0394 19.4901 20.8565C19.6722 20.6737 19.9191 20.5708 20.1767 20.5703H21.2438V26.1452ZM23.9383 7.26786C23.9383 5.19983 25.7904 2.70449 28.0915 2.70449H48.7245V12.3631C48.7262 12.7443 48.6655 13.1231 48.5449 13.4846H24.382C24.2317 13.4856 24.0816 13.4977 23.9329 13.5206L23.9383 7.26786ZM23.9383 28.8334V16.6398C23.9383 16.5203 23.9856 16.4056 24.0699 16.3211C24.1541 16.2365 24.2683 16.1891 24.3874 16.1891H48.4748C48.5075 16.1888 48.54 16.1951 48.5703 16.2075C48.6005 16.2199 48.6281 16.2382 48.6513 16.2613C48.6745 16.2844 48.6929 16.3119 48.7055 16.3422C48.7181 16.3725 48.7245 16.405 48.7245 16.4379V28.8334C48.7207 32.1317 47.4136 35.2938 45.0899 37.6261C42.7663 39.9583 39.6158 41.2703 36.3296 41.2741C33.0433 41.2703 29.8926 39.9584 27.5687 37.6262C25.2447 35.294 23.9372 32.1319 23.9329 28.8334H23.9383ZM44.6971 43.4377L36.3332 50.8894L28.07 43.5422L29.031 42.089C31.2817 43.3406 33.8147 43.9918 36.3877 43.9801C38.9607 43.9684 41.4877 43.2943 43.7271 42.0223L44.6971 43.4377ZM24.8383 44.2761L34.359 52.7501L29.0849 57.8454L21.5977 46.9805L24.8383 44.2761ZM14.9206 75.2875V65.5964C14.9206 65.2378 14.7786 64.8938 14.526 64.6402C14.2733 64.3866 13.9306 64.2442 13.5733 64.2442C13.216 64.2442 12.8733 64.3866 12.6206 64.6402C12.368 64.8938 12.226 65.2378 12.226 65.5964V75.2875H6.73097C5.65931 75.2865 4.63181 74.8588 3.87403 74.0983C3.11624 73.3377 2.69011 72.3064 2.68915 71.2308V63.9719L3.08795 59.8359C3.08795 59.7295 3.1095 59.6249 3.12208 59.5203C3.71128 54.7334 7.31479 50.7145 12.0823 49.521L19.1798 48.2138C19.2013 48.2462 19.2193 48.2787 19.2408 48.3111L27.0424 59.6357C27.2425 59.9258 27.5028 60.1688 27.8055 60.3481C28.1082 60.5274 28.446 60.6387 28.7957 60.6743C28.8771 60.6815 28.958 60.6851 29.0382 60.6851C29.6653 60.6861 30.2683 60.4423 30.7196 60.0053L36.335 54.5838L42.2971 60.3407C42.6832 60.7137 43.1984 60.9218 43.7342 60.9213H43.8636C44.1496 60.9032 44.4288 60.8255 44.6833 60.6933C44.9378 60.5611 45.1621 60.3771 45.342 60.1532L48.3689 56.3795V73.5981C48.3688 74.1801 48.4842 74.7562 48.7084 75.2929L14.9206 75.2875ZM48.3653 48.807V52.0632L43.6714 57.9139L38.3146 52.7501L47.3306 44.7178L47.3485 44.7016L47.5928 44.4834L48.9419 46.647C48.5658 47.3044 48.367 48.0489 48.3653 48.807ZM60.8895 41.732C60.89 41.1981 61.1015 40.6861 61.4777 40.3085C61.8539 39.9309 62.364 39.7186 62.896 39.7181H77.3819C77.9142 39.7181 78.4248 39.9302 78.8014 40.3078C79.178 40.6855 79.3898 41.1977 79.3902 41.732V44.4077H60.8877L60.8895 41.732ZM89.2181 73.5927C89.2181 74.0422 89.0402 74.4733 88.7236 74.7911C88.4069 75.1089 87.9774 75.2875 87.5295 75.2875H52.752C52.3043 75.287 51.8751 75.1083 51.5585 74.7906C51.2419 74.4728 51.0639 74.042 51.0634 73.5927V57.2125L64.6655 64.0224V67.5545C64.6664 68.2475 64.9411 68.912 65.4294 69.402C65.9177 69.8921 66.5797 70.1678 67.2702 70.1688H73.0185C73.7091 70.1678 74.371 69.8921 74.8593 69.402C75.3476 68.912 75.6223 68.2475 75.6233 67.5545V64.0224L89.2181 57.2125V73.5927ZM67.3564 67.4625V61.8732H72.9251V67.4625H67.3564ZM89.2181 54.1925L75.5119 61.0547C75.3537 60.5122 75.0248 60.0358 74.5744 59.6965C74.124 59.3572 73.5763 59.1733 73.0131 59.1724H67.2648C66.7014 59.1732 66.1535 59.357 65.7028 59.6963C65.2521 60.0356 64.9228 60.5121 64.7643 61.0547L51.0598 54.1925V48.807C51.0603 48.3576 51.2383 47.9268 51.5549 47.6091C51.8715 47.2913 52.3007 47.1126 52.7484 47.1122H87.5295C87.9772 47.1126 88.4065 47.2913 88.723 47.6091C89.0396 47.9268 89.2177 48.3576 89.2181 48.807V54.1925ZM36.3296 59.5113C36.0632 59.5113 35.8027 59.5906 35.5811 59.7392C35.3596 59.8878 35.1869 60.099 35.0849 60.3461C34.9829 60.5932 34.9563 60.8651 35.0082 61.1274C35.0602 61.3897 35.1885 61.6306 35.377 61.8198C35.5654 62.0089 35.8054 62.1377 36.0668 62.1898C36.3281 62.242 36.599 62.2152 36.8452 62.1129C37.0914 62.0105 37.3018 61.8372 37.4498 61.6148C37.5979 61.3925 37.6769 61.131 37.6769 60.8636C37.6769 60.5049 37.535 60.161 37.2823 59.9074C37.0296 59.6538 36.687 59.5113 36.3296 59.5113ZM36.3296 70.3293C36.0632 70.3293 35.8027 70.4086 35.5811 70.5572C35.3596 70.7057 35.1869 70.9169 35.0849 71.164C34.9829 71.4111 34.9563 71.683 35.0082 71.9453C35.0602 72.2076 35.1885 72.4486 35.377 72.6377C35.5654 72.8268 35.8054 72.9556 36.0668 73.0078C36.3281 73.06 36.599 73.0332 36.8452 72.9308C37.0914 72.8285 37.3018 72.6552 37.4498 72.4328C37.5979 72.2104 37.6769 71.949 37.6769 71.6815C37.6769 71.3229 37.535 70.9789 37.2823 70.7253C37.0296 70.4717 36.687 70.3293 36.3296 70.3293ZM36.3296 64.9203C36.0632 64.9203 35.8027 64.9996 35.5811 65.1482C35.3596 65.2968 35.1869 65.508 35.0849 65.7551C34.9829 66.0022 34.9563 66.274 35.0082 66.5363C35.0602 66.7987 35.1885 67.0396 35.377 67.2287C35.5654 67.4178 35.8054 67.5466 36.0668 67.5988C36.3281 67.651 36.599 67.6242 36.8452 67.5219C37.0914 67.4195 37.3018 67.2462 37.4498 67.0238C37.5979 66.8014 37.6769 66.54 37.6769 66.2725C37.6769 65.9139 37.535 65.57 37.2823 65.3164C37.0296 65.0628 36.687 64.9203 36.3296 64.9203ZM30.3406 24.1186C30.6979 24.1186 31.0406 23.9761 31.2932 23.7225C31.5459 23.469 31.6878 23.125 31.6878 22.7664V21.0175C31.6878 20.6588 31.5459 20.3149 31.2932 20.0613C31.0406 19.8077 30.6979 19.6652 30.3406 19.6652C29.9832 19.6652 29.6406 19.8077 29.3879 20.0613C29.1352 20.3149 28.9933 20.6588 28.9933 21.0175V22.7628C28.9928 22.9406 29.0273 23.1169 29.0948 23.2814C29.1623 23.4458 29.2615 23.5953 29.3866 23.7213C29.5118 23.8472 29.6605 23.9471 29.8242 24.0153C29.9878 24.0835 30.1633 24.1186 30.3406 24.1186ZM32.3166 34.1973C33.4744 34.9662 34.8266 35.3877 36.2147 35.4125H36.344C37.7759 35.4056 39.1753 34.9829 40.3732 34.1955C40.6676 33.9964 40.8718 33.6886 40.9414 33.3392C41.0109 32.9898 40.9403 32.627 40.7448 32.3295C40.5493 32.0321 40.2447 31.8242 39.8973 31.7509C39.5499 31.6776 39.1877 31.7449 38.8894 31.9382C38.1353 32.4407 37.2501 32.7088 36.3449 32.7088C35.4397 32.7088 34.5545 32.4407 33.8004 31.9382C33.5021 31.7449 33.1399 31.6776 32.7925 31.7509C32.4451 31.8242 32.1405 32.0321 31.945 32.3295C31.7495 32.627 31.6789 32.9898 31.7484 33.3392C31.818 33.6886 32.0222 33.9964 32.3166 34.1955V34.1973Z" fill="#5A189A"/>
</svg>
