<svg width="82" height="79" viewBox="0 0 82 79" fill="none" xmlns="http://www.w3.org/2000/svg">
<path d="M40.7955 10.1122C24.758 10.1122 11.7106 23.1735 11.7106 39.2282C11.7106 55.2828 24.758 68.3442 40.7955 68.3442C56.8329 68.3442 69.8803 55.2828 69.8803 39.2282C69.8803 23.1735 56.8329 10.1122 40.7955 10.1122ZM40.7955 65.9538C26.0761 65.9538 14.1009 53.9648 14.1009 39.2282C14.1009 24.4916 26.0761 12.5025 40.7955 12.5025C55.5148 12.5025 67.49 24.4916 67.49 39.2282C67.49 53.9648 55.5148 65.9538 40.7955 65.9538V65.9538ZM53.2144 25.7386C52.652 25.737 52.0949 25.8471 51.5753 26.0623C51.0557 26.2775 50.5839 26.5937 50.1873 26.9924L34.7974 42.3823L31.4037 38.9887C31.0061 38.5911 30.5342 38.2758 30.0148 38.0606C29.4954 37.8455 28.9387 37.7348 28.3765 37.7348C27.8143 37.7348 27.2576 37.8455 26.7382 38.0606C26.2188 38.2758 25.7469 38.5911 25.3493 38.9887C24.9518 39.3862 24.6364 39.8581 24.4213 40.3775C24.2062 40.8969 24.0954 41.4536 24.0954 42.0158C24.0954 42.578 24.2062 43.1347 24.4213 43.6541C24.6364 44.1735 24.9518 44.6455 25.3493 45.043L31.7703 51.4639C32.5732 52.2667 33.6621 52.7177 34.7975 52.7177C35.9329 52.7177 37.0218 52.2667 37.8246 51.4639L56.2416 33.0468C56.8403 32.4481 57.2481 31.6852 57.4132 30.8548C57.5784 30.0244 57.4937 29.1636 57.1696 28.3813C56.8456 27.5991 56.2969 26.9304 55.5929 26.46C54.8889 25.9896 54.0611 25.7386 53.2144 25.7386ZM54.5514 31.3565L36.1345 49.7735C35.7799 50.1281 35.299 50.3273 34.7975 50.3274C34.2961 50.3274 33.8151 50.1282 33.4605 49.7737L27.0395 43.3528C26.6849 42.9982 26.4857 42.5173 26.4857 42.0158C26.4857 41.7675 26.5347 41.5217 26.6297 41.2923C26.7247 41.0629 26.864 40.8544 27.0395 40.6789C27.2151 40.5033 27.4235 40.364 27.6529 40.269C27.8823 40.174 28.1282 40.1251 28.3765 40.1251C28.8779 40.1251 29.3589 40.3243 29.7134 40.6789L33.9523 44.9176C34.1764 45.1418 34.4804 45.2677 34.7974 45.2677C35.1144 45.2677 35.4183 45.1418 35.6425 44.9176L51.8776 28.6826C52.2322 28.3281 52.7131 28.1289 53.2146 28.1289C53.716 28.1289 54.1969 28.3281 54.5515 28.6827C54.906 29.0373 55.1052 29.5182 55.1052 30.0197C55.1052 30.5211 54.906 31.002 54.5514 31.3566L54.5514 31.3565ZM78.6286 31.7082C77.7381 30.293 76.897 28.9563 76.4656 27.626C76.0069 26.2116 75.8913 24.5821 75.7691 22.8568C75.5788 20.1718 75.3821 17.3953 73.8012 15.2208C72.2036 13.0231 69.6143 11.9781 67.1103 10.9675C65.5194 10.3254 64.0168 9.71889 62.8359 8.85861C61.6773 8.01444 60.6512 6.78261 59.565 5.47842C57.825 3.38958 56.0258 1.22954 53.4049 0.377586C50.8974 -0.437485 48.2233 0.226709 45.6376 0.869274C44.0089 1.27389 42.3248 1.69229 40.7955 1.69229C39.2661 1.69229 37.5819 1.27389 35.9533 0.869284C33.3675 0.226875 30.6935 -0.437476 28.1859 0.377595C25.5651 1.22955 23.7659 3.38951 22.026 5.47835C20.9397 6.78254 19.9136 8.01437 18.7549 8.85862C17.574 9.7189 16.0714 10.3254 14.4805 10.9675C11.9765 11.9781 9.38737 13.0231 7.78968 15.2209C6.20886 17.3954 6.01216 20.1718 5.82183 22.8569C5.69959 24.5822 5.58404 26.2117 5.12534 27.6261C4.69388 28.9563 3.85282 30.293 2.96243 31.7082C1.50596 34.0228 0 36.4163 0 39.2282C0 42.04 1.50596 44.4335 2.96235 46.7481C3.85282 48.1633 4.69388 49.5 5.12534 50.8303C5.58404 52.2447 5.69959 53.8742 5.82183 55.5995C6.01216 58.2845 6.20886 61.061 7.78968 63.2355C9.38737 65.4333 11.9766 66.4782 14.4806 67.4889C16.0715 68.131 17.5741 68.7374 18.755 69.5977C19.9136 70.4419 20.9397 71.6737 22.0259 72.9779C23.7659 75.0667 25.5651 77.2268 28.186 78.0787C30.6935 78.8937 33.3675 78.2294 35.9534 77.587C37.582 77.1824 39.2661 76.764 40.7955 76.764C42.3248 76.764 44.009 77.1824 45.6376 77.587C47.3675 78.0168 49.1362 78.4563 50.8687 78.4563C51.7287 78.4652 52.5848 78.3378 53.405 78.0787C56.0258 77.2268 57.825 75.0668 59.5649 72.978C60.6512 71.6738 61.6773 70.4419 62.836 69.5977C64.0169 68.7374 65.5195 68.1309 67.1104 67.4889C69.6144 66.4782 72.2036 65.4333 73.8012 63.2355C75.3821 61.061 75.5788 58.2845 75.7691 55.5994C75.8913 53.8742 76.0069 52.2446 76.4656 50.8303C76.897 49.5 77.7381 48.1633 78.6285 46.7481C80.085 44.4335 81.5909 42.04 81.5909 39.2282C81.5909 36.4163 80.085 34.0228 78.6286 31.7082V31.7082ZM76.6053 45.4752C75.6761 46.952 74.7151 48.4791 74.1918 50.0928C73.6431 51.7846 73.5117 53.6381 73.3847 55.4304C73.2106 57.8879 73.046 60.2092 71.8678 61.8299C70.6732 63.4732 68.5081 64.347 66.2158 65.2722C64.5602 65.9404 62.8482 66.6314 61.4284 67.6657C60.0303 68.6844 58.86 70.0894 57.7283 71.4481C56.1353 73.3605 54.6308 75.1668 52.6661 75.8054C50.8096 76.4091 48.5773 75.8544 46.214 75.2672C44.4457 74.8279 42.6173 74.3737 40.7955 74.3737C38.9736 74.3737 37.1452 74.8279 35.377 75.2672C33.014 75.8544 30.7819 76.409 28.9249 75.8054C26.9602 75.1668 25.4555 73.3604 23.8626 71.448C22.7309 70.0893 21.5606 68.6844 20.1626 67.6658C18.7428 66.6314 17.0308 65.9404 15.3753 65.2722C13.0829 64.347 10.9177 63.4732 9.72313 61.8299C8.54492 60.2092 8.38035 57.888 8.20621 55.4305C8.07922 53.6381 7.94788 51.7847 7.39915 50.0928C6.87572 48.4791 5.91483 46.952 4.98561 45.4751C3.65098 43.354 2.39036 41.3505 2.39036 39.2282C2.39036 37.1057 3.65098 35.1023 4.98559 32.9812C5.91482 31.5043 6.87578 29.9772 7.39914 28.3635C7.94787 26.6717 8.07921 24.8182 8.2062 23.0259C8.38034 20.5684 8.54491 18.2472 9.72312 16.6264C10.9177 14.9831 13.0829 14.1093 15.3752 13.1841C17.0308 12.5159 18.7428 11.8249 20.1625 10.7906C21.5606 9.77189 22.7309 8.36693 23.8627 7.00819C25.4556 5.09583 26.9602 3.28952 28.9248 2.65093C30.7814 2.04719 33.0136 2.60198 35.3769 3.18907C37.1452 3.62839 38.9736 4.08265 40.7955 4.08265C42.6173 4.08265 44.4457 3.62839 46.2139 3.18914C48.5771 2.60198 50.8093 2.04742 52.666 2.65092C54.6308 3.28952 56.1354 5.0959 57.7283 7.00835C58.86 8.36701 60.0303 9.77189 61.4283 10.7905C62.8481 11.8249 64.5601 12.5159 66.2157 13.1841C68.508 14.1093 70.6732 14.9831 71.8678 16.6264C73.046 18.2472 73.2106 20.5683 73.3847 23.0259C73.5117 24.8182 73.6431 26.6716 74.1918 28.3635C74.7152 29.9772 75.6761 31.5043 76.6053 32.9812C77.9399 35.1023 79.2006 37.1058 79.2006 39.2282C79.2006 41.3506 77.9399 43.354 76.6053 45.4752Z" fill="#5A189A"/>
</svg>
