<svg width="79" height="79" viewBox="0 0 79 79" fill="none" xmlns="http://www.w3.org/2000/svg">
<path d="M72.6329 7.65363H52.8396C51.4096 5.31565 49.4031 3.38406 47.0125 2.04392C44.6219 0.703783 41.9272 0 39.1866 0C36.4459 0 33.7512 0.703783 31.3606 2.04392C28.97 3.38406 26.9636 5.31565 25.5336 7.65363H5.74022C4.21834 7.65534 2.75929 8.26066 1.68316 9.33679C0.607034 10.4129 0.00171256 11.872 0 13.3938L0 58.5502C0.00171216 60.0721 0.607033 61.5312 1.68316 62.6073C2.75929 63.6834 4.21834 64.2887 5.74022 64.2905H29.638C30.0018 66.2078 29.6812 68.192 28.7321 69.8972L26.2194 74.3859C25.9912 74.7936 25.8736 75.2539 25.8783 75.7211C25.8829 76.1883 26.0097 76.6461 26.246 77.0491C26.4823 77.4522 26.8198 77.7864 27.2252 78.0187C27.6306 78.251 28.0897 78.3731 28.5569 78.3731H49.8162C50.2834 78.3731 50.7425 78.251 51.1479 78.0187C51.5533 77.7864 51.8909 77.4522 52.1272 77.0491C52.3635 76.6461 52.4902 76.1883 52.4949 75.7211C52.4995 75.2539 52.3819 74.7936 52.1537 74.3859L49.641 69.8972C48.6919 68.192 48.3713 66.2078 48.7351 64.2905H72.6329C74.1548 64.2887 75.6138 63.6834 76.69 62.6073C77.7661 61.5312 78.3714 60.0721 78.3731 58.5502V13.3938C78.3714 11.872 77.7661 10.4129 76.69 9.33679C75.6138 8.26066 74.1548 7.65534 72.6329 7.65363ZM39.1866 2.29609C41.8997 2.29608 44.5519 3.10061 46.8078 4.60794C49.0637 6.11527 50.8219 8.2577 51.8602 10.7643C52.8985 13.2709 53.1701 16.0291 52.6408 18.6901C52.1115 21.3511 50.805 23.7954 48.8866 25.7139C46.9681 27.6323 44.5238 28.9388 41.8628 29.4681C39.2018 29.9974 36.4436 29.7258 33.937 28.6875C31.4304 27.6492 29.288 25.891 27.7806 23.6351C26.2733 21.3792 25.4688 18.727 25.4688 16.0139C25.4729 12.3769 26.9195 8.89017 29.4912 6.31847C32.0629 3.74678 35.5496 2.3002 39.1866 2.29609ZM50.1502 75.5074C50.1828 75.5656 50.1996 75.6314 50.1989 75.6981C50.1983 75.7649 50.1801 75.8303 50.1464 75.8879C50.1126 75.9455 50.0644 75.9932 50.0065 76.0264C49.9486 76.0596 49.883 76.077 49.8162 76.077H28.5569C28.4902 76.077 28.4246 76.0596 28.3667 76.0264C28.3087 75.9932 28.2605 75.9455 28.2267 75.8879C28.193 75.8303 28.1749 75.7649 28.1742 75.6981C28.1735 75.6314 28.1904 75.5656 28.223 75.5074L30.7357 71.0186C31.8744 68.9722 32.3063 66.6073 31.9643 64.2905H46.4088C46.0669 66.6073 46.4987 68.9722 47.6375 71.0186L50.1502 75.5074ZM76.077 58.5502C76.076 59.4634 75.7128 60.3388 75.0671 60.9845C74.4215 61.6301 73.546 61.9933 72.6329 61.9944H47.8331C47.8275 61.9944 47.822 61.9943 47.8164 61.9944H30.5548C30.5509 61.9943 30.5469 61.9944 30.543 61.9944H5.74022C4.8271 61.9933 3.95167 61.6301 3.30599 60.9845C2.66032 60.3388 2.29712 59.4634 2.29609 58.5502V53.5754H76.077V58.5502ZM76.077 51.2793H2.29609V13.3938C2.29711 12.4807 2.6603 11.6053 3.30598 10.9596C3.95166 10.3139 4.82709 9.95074 5.74022 9.94971H24.3663C23.3708 12.3817 22.9891 15.0213 23.2548 17.6357C23.5205 20.2501 24.4255 22.7589 25.89 24.9409C27.3545 27.1229 29.3335 28.9109 31.6524 30.1472C33.9712 31.3836 36.5587 32.0303 39.1866 32.0303C41.8144 32.0303 44.4019 31.3836 46.7208 30.1472C49.0396 28.9109 51.0186 27.1229 52.4831 24.9409C53.9476 22.7589 54.8526 20.2501 55.1184 17.6357C55.3841 15.0213 55.0023 12.3817 54.0068 9.94971H72.6329C73.546 9.95074 74.4215 10.3139 75.0672 10.9596C75.7128 11.6053 76.076 12.4807 76.077 13.3938V51.2793ZM70.3368 43.0899H28.02C27.7654 42.1041 27.1904 41.2309 26.3855 40.6075C25.5806 39.9841 24.5913 39.6458 23.5732 39.6458C22.555 39.6458 21.5658 39.9841 20.7608 40.6075C19.9559 41.2309 19.3809 42.1041 19.1263 43.0899H8.03631C7.73183 43.0899 7.43982 43.2109 7.22452 43.4262C7.00922 43.6415 6.88826 43.9335 6.88826 44.238C6.88826 44.5424 7.00922 44.8344 7.22452 45.0498C7.43982 45.265 7.73183 45.386 8.03631 45.386H19.1263C19.3809 46.3718 19.9559 47.245 20.7608 47.8684C21.5658 48.4918 22.555 48.8301 23.5732 48.8301C24.5913 48.8301 25.5806 48.4918 26.3855 47.8684C27.1904 47.245 27.7654 46.3718 28.02 45.386H70.3368C70.6413 45.386 70.9333 45.265 71.1486 45.0498C71.3639 44.8344 71.4849 44.5424 71.4849 44.238C71.4849 43.9335 71.3639 43.6415 71.1486 43.4262C70.9333 43.2109 70.6413 43.0899 70.3368 43.0899ZM23.5732 46.534C23.119 46.534 22.6751 46.3994 22.2975 46.1471C21.9199 45.8948 21.6256 45.5362 21.4519 45.1166C21.2781 44.6971 21.2326 44.2354 21.3212 43.79C21.4098 43.3446 21.6285 42.9355 21.9496 42.6144C22.2707 42.2933 22.6798 42.0746 23.1252 41.986C23.5706 41.8974 24.0323 41.9429 24.4518 42.1166C24.8714 42.2904 25.23 42.5847 25.4823 42.9623C25.7346 43.3399 25.8693 43.7838 25.8693 44.238C25.8686 44.8467 25.6265 45.4303 25.196 45.8608C24.7655 46.2912 24.1819 46.5334 23.5732 46.534ZM35.7574 23.0683C36.0464 23.223 36.372 23.2961 36.6994 23.2797C37.0267 23.2634 37.3435 23.1583 37.6156 22.9756L45.7674 17.5168C46.0143 17.3514 46.2167 17.1278 46.3566 16.8657C46.4965 16.6036 46.5697 16.311 46.5697 16.0138C46.5697 15.7167 46.4965 15.4241 46.3565 15.162C46.2166 14.8999 46.0142 14.6763 45.7673 14.5109L37.6156 9.05221C37.3433 8.86988 37.0266 8.76495 36.6993 8.74862C36.372 8.7323 36.0465 8.80519 35.7574 8.95953C35.4683 9.11386 35.2266 9.34382 35.058 9.62485C34.8895 9.90589 34.8005 10.2274 34.8005 10.5551V21.4727C34.8001 21.8004 34.889 22.1221 35.0576 22.4032C35.2262 22.6843 35.4681 22.9142 35.7574 23.0683ZM37.0965 11.468L43.8851 16.0139L37.0965 20.5598V11.468Z" fill="#5A189A"/>
</svg>
