<svg width="116" height="19" viewBox="0 0 116 19" fill="none" xmlns="http://www.w3.org/2000/svg">
<path d="M20.2708 7.15765C20.2009 6.94804 20.0148 6.79529 19.7908 6.76364L13.4977 5.87345L10.6833 0.322507C10.5831 0.124902 10.3764 -0.000183105 10.15 -0.000183105C9.92364 -0.000183105 9.71691 0.124902 9.61672 0.322507L6.80217 5.87345L0.509197 6.76364C0.285224 6.79529 0.0990758 6.94805 0.0291362 7.15761C-0.0408429 7.36722 0.0175193 7.59728 0.179641 7.75108L4.73316 12.0719L3.65838 18.1731C3.62008 18.3903 3.71183 18.6097 3.89496 18.7393C3.99856 18.8125 4.12127 18.8498 4.24458 18.8498C4.33926 18.8498 4.43426 18.8279 4.52125 18.7833L10.15 15.9027L15.7785 18.7833C15.9789 18.8858 16.2217 18.8688 16.4048 18.7392C16.588 18.6097 16.6797 18.3902 16.6415 18.173L15.5663 12.0719L20.1204 7.75104C20.2825 7.59728 20.3409 7.36722 20.2708 7.15765Z" fill="#FFCA56"/>
<path d="M44.1958 7.15765C44.1259 6.94804 43.9398 6.79529 43.7158 6.76364L37.4227 5.87345L34.6083 0.322507C34.5081 0.124902 34.3014 -0.000183105 34.075 -0.000183105C33.8486 -0.000183105 33.6419 0.124902 33.5417 0.322507L30.7272 5.87345L24.4342 6.76364C24.2102 6.79529 24.0241 6.94805 23.9541 7.15761C23.8841 7.36722 23.9425 7.59728 24.1046 7.75108L28.6582 12.0719L27.5834 18.1731C27.5451 18.3903 27.6368 18.6097 27.8199 18.7393C27.9235 18.8125 28.0463 18.8498 28.1696 18.8498C28.2642 18.8498 28.3592 18.8279 28.4462 18.7833L34.075 15.9027L39.7035 18.7833C39.9039 18.8858 40.1467 18.8688 40.3298 18.7392C40.5129 18.6097 40.6047 18.3902 40.5665 18.173L39.4913 12.0719L44.0454 7.75104C44.2074 7.59728 44.2659 7.36722 44.1958 7.15765Z" fill="#FFCA56"/>
<path d="M68.1208 7.15765C68.0509 6.94804 67.8648 6.79529 67.6408 6.76364L61.3477 5.87345L58.5333 0.322507C58.4331 0.124902 58.2264 -0.000183105 58 -0.000183105C57.7736 -0.000183105 57.5669 0.124902 57.4667 0.322507L54.6521 5.87345L48.3592 6.76364C48.1352 6.79529 47.9491 6.94805 47.8791 7.15761C47.8091 7.36722 47.8675 7.59728 48.0296 7.75108L52.5831 12.0719L51.5084 18.1731C51.4701 18.3903 51.5618 18.6097 51.7449 18.7393C51.8485 18.8125 51.9712 18.8498 52.0946 18.8498C52.1892 18.8498 52.2842 18.8279 52.3712 18.7833L58 15.9027L63.6285 18.7833C63.8289 18.8858 64.0717 18.8688 64.2548 18.7392C64.4379 18.6097 64.5297 18.3902 64.4915 18.173L63.4163 12.0719L67.9704 7.75104C68.1324 7.59728 68.1908 7.36722 68.1208 7.15765Z" fill="#FFCA56"/>
<path d="M92.0459 7.15765C91.9759 6.94804 91.7899 6.79529 91.5658 6.76364L85.2728 5.87345L82.4583 0.322507C82.3582 0.124902 82.1514 -0.000183105 81.9251 -0.000183105C81.6987 -0.000183105 81.4919 0.124902 81.3917 0.322507L78.5772 5.87345L72.2842 6.76364C72.0602 6.79529 71.8741 6.94805 71.8042 7.15761C71.7342 7.36722 71.7925 7.59728 71.9547 7.75108L76.5082 12.0719L75.4334 18.1731C75.3951 18.3903 75.4869 18.6097 75.67 18.7393C75.7736 18.8125 75.8963 18.8498 76.0196 18.8498C76.1143 18.8498 76.2093 18.8279 76.2963 18.7833L81.925 15.9027L87.5535 18.7833C87.7539 18.8858 87.9967 18.8688 88.1798 18.7392C88.363 18.6097 88.4548 18.3902 88.4165 18.173L87.3414 12.0719L91.8954 7.75104C92.0575 7.59728 92.1159 7.36722 92.0459 7.15765Z" fill="#FFCA56"/>
<path d="M115.971 7.15765C115.901 6.94804 115.715 6.79529 115.491 6.76364L109.198 5.87345L106.383 0.322507C106.283 0.124902 106.076 -0.000183105 105.85 -0.000183105C105.624 -0.000183105 105.417 0.124902 105.317 0.322507L102.502 5.87345L96.2092 6.76364C95.9852 6.79529 95.7991 6.94805 95.7291 7.15761C95.6592 7.36722 95.7175 7.59728 95.8797 7.75108L100.433 12.0719L99.3584 18.1731C99.3201 18.3903 99.4118 18.6097 99.595 18.7393C99.6986 18.8125 99.8213 18.8498 99.9446 18.8498C100.039 18.8498 100.134 18.8279 100.221 18.7833L105.85 15.9027L111.479 18.7833C111.679 18.8858 111.922 18.8688 112.105 18.7392C112.288 18.6097 112.38 18.3902 112.341 18.173L111.266 12.0719L115.82 7.75104C115.982 7.59728 116.041 7.36722 115.971 7.15765Z" fill="#FFCA56"/>
</svg>
