<svg width="116" height="19" viewBox="0 0 116 19" fill="none" xmlns="http://www.w3.org/2000/svg">
<path d="M20.2708 7.15784C20.2009 6.94823 20.0148 6.79547 19.7908 6.76382L13.4977 5.87364L10.6833 0.32269C10.5831 0.125085 10.3764 0 10.15 0C9.92364 0 9.71691 0.125085 9.61672 0.32269L6.80217 5.87364L0.509197 6.76382C0.285224 6.79547 0.0990758 6.94823 0.0291362 7.1578C-0.0408429 7.3674 0.0175193 7.59747 0.179641 7.75127L4.73316 12.0721L3.65838 18.1732C3.62008 18.3905 3.71183 18.6099 3.89496 18.7395C3.99856 18.8127 4.12127 18.85 4.24458 18.85C4.33926 18.85 4.43426 18.828 4.52125 18.7835L10.15 15.9029L15.7785 18.7835C15.9789 18.886 16.2217 18.8689 16.4048 18.7394C16.588 18.6099 16.6797 18.3904 16.6415 18.1732L15.5663 12.0721L20.1204 7.75123C20.2825 7.59747 20.3409 7.3674 20.2708 7.15784Z" fill="#FFCA56"/>
<path d="M44.1958 7.15784C44.1259 6.94823 43.9398 6.79547 43.7158 6.76382L37.4227 5.87364L34.6083 0.32269C34.5081 0.125085 34.3014 0 34.075 0C33.8486 0 33.6419 0.125085 33.5417 0.32269L30.7272 5.87364L24.4342 6.76382C24.2102 6.79547 24.0241 6.94823 23.9541 7.1578C23.8841 7.3674 23.9425 7.59747 24.1046 7.75127L28.6582 12.0721L27.5834 18.1732C27.5451 18.3905 27.6368 18.6099 27.8199 18.7395C27.9235 18.8127 28.0463 18.85 28.1696 18.85C28.2642 18.85 28.3592 18.828 28.4462 18.7835L34.075 15.9029L39.7035 18.7835C39.9039 18.886 40.1467 18.8689 40.3298 18.7394C40.5129 18.6099 40.6047 18.3904 40.5665 18.1732L39.4913 12.0721L44.0454 7.75123C44.2074 7.59747 44.2659 7.3674 44.1958 7.15784Z" fill="#FFCA56"/>
<path d="M68.1208 7.15784C68.0509 6.94823 67.8648 6.79547 67.6408 6.76382L61.3477 5.87364L58.5333 0.32269C58.4332 0.125085 58.2264 0 58 0C57.7736 0 57.5669 0.125085 57.4667 0.32269L54.6522 5.87364L48.3592 6.76382C48.1352 6.79547 47.9491 6.94823 47.8791 7.1578C47.8092 7.3674 47.8675 7.59747 48.0296 7.75127L52.5832 12.0721L51.5084 18.1732C51.4701 18.3905 51.5618 18.6099 51.745 18.7395C51.8486 18.8127 51.9713 18.85 52.0946 18.85C52.1893 18.85 52.2843 18.828 52.3713 18.7835L58 15.9029L63.6285 18.7835C63.8289 18.886 64.0717 18.8689 64.2548 18.7394C64.438 18.6099 64.5297 18.3904 64.4915 18.1732L63.4163 12.0721L67.9704 7.75123C68.1325 7.59747 68.1909 7.3674 68.1208 7.15784Z" fill="#FFCA56"/>
<path d="M92.0458 7.15784C91.9759 6.94823 91.7898 6.79547 91.5658 6.76382L85.2727 5.87364L82.4583 0.32269C82.3581 0.125085 82.1514 0 81.925 0C81.6986 0 81.4919 0.125085 81.3917 0.32269L78.5772 5.87364L72.2842 6.76382C72.0602 6.79547 71.8741 6.94823 71.8041 7.1578C71.7342 7.3674 71.7925 7.59747 71.9546 7.75127L76.5082 12.0721L75.4334 18.1732C75.3951 18.3905 75.4868 18.6099 75.67 18.7395C75.7736 18.8127 75.8963 18.85 76.0196 18.85C76.1143 18.85 76.2093 18.828 76.2962 18.7835L81.925 15.9029L87.5535 18.7835C87.7539 18.886 87.9967 18.8689 88.1798 18.7394C88.363 18.6099 88.4547 18.3904 88.4165 18.1732L87.3413 12.0721L91.8954 7.75123C92.0575 7.59747 92.1159 7.3674 92.0458 7.15784Z" fill="#FFCA56"/>
<path d="M115.971 7.15784C115.901 6.94823 115.715 6.79547 115.491 6.76382L109.198 5.87364L106.383 0.32269C106.283 0.125085 106.076 0 105.85 0C105.624 0 105.417 0.125085 105.317 0.32269L102.502 5.87364L96.2092 6.76382C95.9852 6.79547 95.7991 6.94823 95.7291 7.1578C95.6592 7.3674 95.7175 7.59747 95.8796 7.75127L100.433 12.0721L99.3584 18.1732C99.3201 18.3905 99.4118 18.6099 99.595 18.7395C99.6986 18.8127 99.8213 18.85 99.9446 18.85C100.039 18.85 100.134 18.828 100.221 18.7835L105.85 15.9029L111.478 18.7835C111.679 18.886 111.922 18.8689 112.105 18.7394C112.288 18.6099 112.38 18.3904 112.341 18.1732L111.266 12.0721L115.82 7.75123C115.982 7.59747 116.041 7.3674 115.971 7.15784Z" fill="#EBEBEB"/>
</svg>
