<svg width="58" height="57" viewBox="0 0 58 57" fill="none" xmlns="http://www.w3.org/2000/svg">
<path d="M36.5929 19.9536C36.5148 19.8754 36.4222 19.8135 36.3202 19.7712C36.2182 19.7289 36.1089 19.7071 35.9985 19.7071C35.888 19.7071 35.7787 19.7289 35.6767 19.7712C35.5747 19.8135 35.4821 19.8754 35.404 19.9536L20.6247 34.7329C20.5421 34.8099 20.4758 34.9028 20.4298 35.006C20.3838 35.1091 20.3591 35.2205 20.3571 35.3335C20.3551 35.4464 20.3759 35.5586 20.4182 35.6633C20.4605 35.7681 20.5235 35.8632 20.6033 35.9431C20.6832 36.023 20.7784 36.0859 20.8831 36.1282C20.9878 36.1705 21.1 36.1913 21.213 36.1893C21.3259 36.1873 21.4373 36.1626 21.5405 36.1166C21.6436 36.0707 21.7365 36.0044 21.8135 35.9217L36.5929 21.1424C36.671 21.0644 36.733 20.9717 36.7753 20.8697C36.8175 20.7677 36.8393 20.6584 36.8393 20.548C36.8393 20.4376 36.8175 20.3282 36.7753 20.2262C36.733 20.1242 36.671 20.0316 36.5929 19.9536ZM23.7851 27.1963C24.7296 27.1957 25.6446 26.8677 26.3743 26.2681C27.104 25.6686 27.6032 24.8345 27.7869 23.9081C27.9707 22.9817 27.8275 22.0203 27.3818 21.1876C26.9362 20.355 26.2156 19.7026 25.3428 19.3416C24.4701 18.9806 23.4992 18.9335 22.5956 19.2081C21.6919 19.4827 20.9115 20.0621 20.3872 20.8476C19.8629 21.6332 19.6271 22.5762 19.7201 23.516C19.8131 24.4559 20.2291 25.3344 20.8972 26.0019C21.2762 26.3814 21.7265 26.6822 22.222 26.8872C22.7176 27.0922 23.2488 27.1972 23.7851 27.1963ZM22.086 21.4149C22.422 21.0789 22.85 20.8501 23.316 20.7573C23.7821 20.6646 24.2651 20.7122 24.7041 20.894C25.1431 21.0758 25.5183 21.3837 25.7823 21.7788C26.0462 22.1738 26.1871 22.6383 26.1871 23.1134C26.1871 23.5886 26.0462 24.0531 25.7823 24.4481C25.5183 24.8432 25.1431 25.1511 24.7041 25.3329C24.2651 25.5147 23.7821 25.5623 23.316 25.4695C22.85 25.3768 22.422 25.148 22.086 24.812C21.8625 24.5892 21.6851 24.3245 21.564 24.033C21.443 23.7416 21.3807 23.4291 21.3807 23.1134C21.3807 22.7978 21.443 22.4853 21.564 22.1939C21.6851 21.9024 21.8625 21.6377 22.086 21.4149ZM55.1708 24.443C54.4295 23.7342 53.6635 23.0007 53.5222 22.3817C53.3719 21.72 53.7532 20.6994 54.1222 19.7102C54.6482 18.3005 55.1921 16.8425 54.5876 15.5898C53.9719 14.3157 52.4758 13.8301 51.029 13.3591C50.0387 13.0372 49.0159 12.7052 48.6065 12.1927C48.1972 11.6801 48.094 10.599 47.9987 9.55823C47.8551 8.04867 47.7127 6.48864 46.6125 5.60937C45.5123 4.7301 43.9702 4.93646 42.4719 5.14057C41.4311 5.27852 40.3544 5.42095 39.7499 5.13048C39.1679 4.84898 38.6183 3.9327 38.0878 3.04558C37.3028 1.73565 36.4908 0.379734 35.099 0.063466C33.7532 -0.241587 32.4646 0.608523 31.2141 1.42947C30.3247 2.02051 29.4051 2.62053 28.7108 2.62053C28.0166 2.62053 27.097 2.02051 26.2076 1.43172C24.9571 0.610766 23.664 -0.238222 22.3182 0.065709C20.9264 0.381977 20.1144 1.73789 19.3293 3.04782C18.7989 3.93494 18.2493 4.85122 17.6673 5.13272C17.0628 5.4232 15.985 5.28076 14.9453 5.14282C13.447 4.94431 11.8982 4.73795 10.8047 5.61161C9.71122 6.48527 9.56654 8.04867 9.42747 9.55711C9.33214 10.5979 9.23345 11.6734 8.81961 12.1916C8.40577 12.7097 7.38743 13.0361 6.39713 13.3579C4.95038 13.8278 3.45427 14.3146 2.83856 15.5886C2.23406 16.8414 2.778 18.2993 3.30399 19.7091C3.67297 20.6971 4.05428 21.7188 3.904 22.3805C3.76269 22.9996 2.99669 23.7331 2.25537 24.4419C1.14619 25.5028 0 26.5997 0 28.0397C0 29.4797 1.14619 30.5766 2.25537 31.6375C2.99669 32.3463 3.76269 33.0798 3.904 33.6989C4.05428 34.3606 3.67297 35.3812 3.30399 36.3703C2.778 37.7801 2.23406 39.2381 2.83856 40.4908C3.45427 41.7648 4.95038 42.2505 6.39265 42.7215C7.38295 43.0434 8.40577 43.3753 8.81512 43.8879C9.22448 44.4004 9.32766 45.4815 9.42299 46.5223C9.56205 48.0308 9.70449 49.5908 10.8047 50.4678C11.9049 51.3448 13.447 51.1351 14.9453 50.9366C15.9861 50.7987 17.0628 50.6562 17.6673 50.9467C18.2493 51.2282 18.7989 52.1445 19.3293 53.0316C20.1144 54.3415 20.9264 55.6974 22.3182 56.0137C22.5056 56.0555 22.697 56.0766 22.889 56.0765C24.0274 56.0765 25.1321 55.352 26.2031 54.6477C27.0925 54.0634 28.0121 53.4589 28.7064 53.4589C29.4006 53.4589 30.3202 54.0634 31.2096 54.6477C32.4601 55.4687 33.7521 56.3176 35.0945 56.0137C36.4863 55.6974 37.2983 54.3415 38.0834 53.0316C38.6138 52.1445 39.1634 51.2282 39.7454 50.9467C40.3499 50.6562 41.4277 50.7987 42.4674 50.9366C43.9657 51.1351 45.5145 51.3415 46.608 50.4678C47.7015 49.5942 47.8506 48.0308 47.9897 46.5223C48.085 45.4815 48.1837 44.406 48.5976 43.8879C49.0114 43.3697 50.0298 43.0434 51.0201 42.7215C52.4668 42.2516 53.9629 41.7648 54.5786 40.4908C55.1831 39.2381 54.6392 37.7801 54.1132 36.3703C53.7442 35.3823 53.3629 34.3606 53.5132 33.6989C53.6545 33.0798 54.4205 32.3463 55.1618 31.6375C56.2755 30.5766 57.4217 29.4797 57.4217 28.0397C57.4217 26.5997 56.2755 25.5028 55.1663 24.4419L55.1708 24.443ZM54.0078 30.4229C53.087 31.3044 52.1348 32.2174 51.8825 33.3265C51.6201 34.4795 52.0911 35.74 52.5453 36.9603C52.9491 38.0392 53.3651 39.1551 53.0724 39.7641C52.7696 40.391 51.6201 40.7644 50.5086 41.1256C49.2839 41.5248 48.0166 41.9364 47.2921 42.8426C46.5676 43.7488 46.4409 45.0857 46.3231 46.3731C46.2166 47.5306 46.1078 48.7283 45.5684 49.1579C45.0289 49.5874 43.8468 49.4259 42.6973 49.27C41.4109 49.0996 40.0819 48.9235 39.0243 49.4327C37.988 49.9328 37.3073 51.0689 36.6489 52.168C36.0456 53.1774 35.422 54.217 34.7311 54.3741C34.0863 54.521 33.0982 53.8705 32.1427 53.2424C31.047 52.5224 29.9131 51.7777 28.7153 51.7777C27.5175 51.7777 26.3837 52.5224 25.288 53.2424C24.3324 53.8705 23.3433 54.5199 22.6995 54.3741C22.0086 54.217 21.3851 53.1752 20.7817 52.168C20.1234 51.0689 19.4426 49.9328 18.4063 49.4327C17.8826 49.1803 17.2927 49.0962 16.6747 49.0962C16.0245 49.112 15.376 49.1701 14.7334 49.27C13.5838 49.4226 12.3961 49.5796 11.8623 49.1579C11.3284 48.7362 11.2152 47.5261 11.103 46.3687C10.9909 45.0868 10.863 43.7499 10.134 42.8437C9.40504 41.9375 8.14221 41.5203 6.91752 41.1211C5.80609 40.76 4.65654 40.3865 4.35373 39.7596C4.06101 39.1539 4.4771 38.038 4.88084 36.9558C5.32945 35.7356 5.80609 34.475 5.54366 33.3221C5.29132 32.2106 4.33915 31.3033 3.41838 30.4184C2.56491 29.6098 1.68228 28.7608 1.68228 28.0397C1.68228 27.3186 2.56491 26.4696 3.41838 25.6576C4.33915 24.7761 5.29132 23.8632 5.54927 22.754C5.8117 21.6011 5.34066 20.3405 4.88645 19.1203C4.4827 18.0414 4.06662 16.9255 4.35934 16.3165C4.66215 15.6896 5.81731 15.3161 6.92312 14.955C8.14782 14.5557 9.41514 14.1441 10.1396 13.2379C10.8641 12.3317 10.9909 10.9983 11.103 9.71076C11.2152 8.55335 11.3184 7.35557 11.8578 6.92603C12.3973 6.49649 13.5793 6.65799 14.7289 6.81388C16.0153 6.98435 17.3443 7.16043 18.4019 6.65126C19.4381 6.15106 20.1189 5.01496 20.7772 3.91588C21.3806 2.90651 22.0042 1.86687 22.695 1.70985C23.3399 1.56293 24.3279 2.21341 25.2835 2.84146C26.3792 3.56148 27.5131 4.30617 28.7108 4.30617C29.9086 4.30617 31.0425 3.56148 32.1382 2.84146C33.0937 2.21341 34.0818 1.56406 34.7267 1.70985C35.4175 1.86687 36.0411 2.90875 36.6444 3.91588C37.3028 5.01496 37.9835 6.15106 39.0198 6.65126C40.0774 7.16043 41.4075 6.98771 42.6928 6.81388C43.8423 6.66135 45.03 6.50322 45.5639 6.92603C46.0977 7.34884 46.2121 8.55335 46.3187 9.71076C46.4364 10.9983 46.5587 12.3295 47.2876 13.2413C48.0166 14.1531 49.2795 14.5591 50.5042 14.9583C51.6156 15.3195 52.7651 15.6929 53.0679 16.3199C53.3607 16.9255 52.9446 18.0414 52.5408 19.1236C52.0866 20.3439 51.6156 21.6044 51.878 22.7574C52.1304 23.8688 53.0825 24.7761 54.0033 25.661C54.8568 26.4696 55.7394 27.3186 55.7394 28.0397C55.7394 28.7608 54.8568 29.6098 54.0033 30.4218L54.0078 30.4229ZM28.7108 7.98138C17.6504 7.98138 8.6525 16.9793 8.6525 28.0397C8.6525 39.1001 17.6504 48.098 28.7108 48.098C39.7712 48.098 48.7692 39.1001 48.7692 28.0397C48.7692 16.9793 39.7712 7.98138 28.7108 7.98138ZM28.7108 46.4158C18.5779 46.4158 10.3348 38.1726 10.3348 28.0397C10.3348 17.9068 18.5779 9.66365 28.7108 9.66365C38.8437 9.66365 47.0869 17.9068 47.0869 28.0397C47.0869 38.1726 38.8437 46.4158 28.7108 46.4158ZM30.7486 30.0775C30.1773 30.6487 29.7882 31.3765 29.6305 32.1689C29.4728 32.9612 29.5537 33.7825 29.8628 34.5289C30.1719 35.2753 30.6955 35.9133 31.3672 36.3622C32.0389 36.811 32.8287 37.0506 33.6365 37.0506C34.4444 37.0506 35.2342 36.811 35.9059 36.3622C36.5776 35.9133 37.1011 35.2753 37.4103 34.5289C37.7194 33.7825 37.8002 32.9612 37.6426 32.1689C37.4849 31.3765 37.0958 30.6487 36.5244 30.0775C35.758 29.3125 34.7194 28.8829 33.6365 28.8829C32.5537 28.8829 31.515 29.3125 30.7486 30.0775ZM35.3356 34.6645C34.9997 35.0005 34.5716 35.2294 34.1056 35.3221C33.6396 35.4148 33.1566 35.3673 32.7176 35.1854C32.2786 35.0036 31.9034 34.6957 31.6394 34.3007C31.3754 33.9056 31.2345 33.4411 31.2345 32.966C31.2345 32.4908 31.3754 32.0264 31.6394 31.6313C31.9034 31.2362 32.2786 30.9283 32.7176 30.7465C33.1566 30.5647 33.6396 30.5171 34.1056 30.6099C34.5716 30.7026 34.9997 30.9314 35.3356 31.2674C35.7855 31.7182 36.0382 32.3291 36.0382 32.966C36.0382 33.6029 35.7855 34.2137 35.3356 34.6645Z" fill="#5A189A"/>
</svg>
