<svg width="52" height="48" viewBox="0 0 52 48" fill="none" xmlns="http://www.w3.org/2000/svg">
<path d="M48.2595 37.4462C50.4591 33.2642 51.4551 28.5538 51.1365 23.8393C50.8179 19.1248 49.1972 14.5912 46.4549 10.7431C46.4367 10.7174 46.417 10.6928 46.3957 10.6695L46.3797 10.6503C45.5803 9.52527 44.6864 8.47036 43.7079 7.49703C38.9075 2.69675 32.3968 0 25.608 0C18.8193 0 12.3086 2.69675 7.5081 7.49703C6.81116 8.19067 6.15923 8.9281 5.55628 9.70483C5.47136 9.77261 5.40114 9.85699 5.3499 9.9528C5.3499 9.964 5.3499 9.9752 5.3403 9.9864C2.34768 13.852 0.530219 18.4969 0.104712 23.3669C-0.320794 28.237 0.66362 33.1266 2.94053 37.4526C2.01788 38.2736 1.27902 39.2801 0.772283 40.4063C0.26555 41.5325 0.00238032 42.7531 0 43.988L0 47.1877C0 47.3999 0.0842776 47.6034 0.234293 47.7534C0.384308 47.9034 0.587772 47.9877 0.799925 47.9877H50.3953C50.6075 47.9877 50.8109 47.9034 50.9609 47.7534C51.1109 47.6034 51.1952 47.3999 51.1952 47.1877V43.988C51.1943 42.7523 50.9324 41.5308 50.4264 40.4034C49.9205 39.276 49.1821 38.2683 48.2595 37.4462ZM46.938 36.4655C45.8014 35.7732 44.5213 35.3502 43.196 35.2288C43.196 35.2145 43.196 35.2017 43.196 35.1889V32.7891C43.1921 32.7616 43.1868 32.7344 43.18 32.7075C44.2942 32.1101 45.1952 31.1813 45.7584 30.0494C46.3216 28.9176 46.5191 27.6387 46.3237 26.3897H49.5698C49.447 29.9024 48.5483 33.3444 46.938 36.4687V36.4655ZM39.9963 31.9892C38.7234 31.9892 37.5026 31.4835 36.6025 30.5834C35.7024 29.6833 35.1967 28.4625 35.1967 27.1896C35.2992 27.1897 35.4008 27.1702 35.4959 27.132L38.446 25.9417C38.9391 25.7418 39.4849 25.7131 39.9963 25.8601L44.5734 27.1608C44.6449 27.1763 44.7181 27.1816 44.791 27.1768V27.1896C44.791 28.4617 44.286 29.6817 43.387 30.5817C42.4879 31.4817 41.2684 31.9879 39.9963 31.9892ZM41.5961 33.3618V35.1889C41.5961 35.6132 41.4276 36.0201 41.1275 36.3201C40.8275 36.6202 40.4206 36.7887 39.9963 36.7887C39.572 36.7887 39.165 36.6202 38.865 36.3201C38.565 36.0201 38.3964 35.6132 38.3964 35.1889V33.3618C39.4415 33.6648 40.5511 33.6648 41.5961 33.3618ZM36.7966 35.2624C36.2135 35.3152 35.6373 35.4267 35.0767 35.5952C34.3423 34.59 33.4027 33.7523 32.3202 33.1375C31.2376 32.5228 30.0368 32.145 28.7973 32.0291C28.7973 32.0147 28.7973 32.0019 28.7973 31.9892V29.5894C28.7935 29.5619 28.7881 29.5347 28.7813 29.5078C30.0141 28.801 30.9766 27.704 31.5171 26.3897H33.6737C33.631 26.6544 33.6054 26.9216 33.5969 27.1896C33.6005 28.3109 33.8996 29.4113 34.4642 30.3801C35.0288 31.3489 35.8388 32.1516 36.8126 32.7075C36.8057 32.7344 36.8004 32.7616 36.7966 32.7891V35.1889C36.7966 35.2145 36.7966 35.2368 36.7966 35.2608V35.2624ZM25.5976 28.7894C24.3247 28.7894 23.1039 28.2838 22.2038 27.3837C21.3037 26.4836 20.7981 25.2628 20.7981 23.9899C20.9006 23.99 21.0021 23.9705 21.0972 23.9323L24.0474 22.742C24.5404 22.5422 25.0863 22.5135 25.5976 22.6604L30.1748 23.9611C30.2462 23.9765 30.3194 23.9819 30.3924 23.9771V23.9899C30.3924 25.262 29.8874 26.482 28.9883 27.382C28.0893 28.2819 26.8697 28.7882 25.5976 28.7894ZM27.1975 30.1621V31.9892C27.1975 32.4135 27.0289 32.8204 26.7289 33.1204C26.4288 33.4204 26.0219 33.589 25.5976 33.589C25.1733 33.589 24.7664 33.4204 24.4663 33.1204C24.1663 32.8204 23.9978 32.4135 23.9978 31.9892V30.1621C25.0428 30.4651 26.1524 30.4651 27.1975 30.1621ZM22.3979 32.0291C21.1564 32.1434 19.9535 32.5205 18.8689 33.1353C17.7843 33.7502 16.843 34.5887 16.1073 35.5952C15.5504 35.4269 14.978 35.3148 14.3987 35.2608C14.3987 35.2352 14.3987 35.2129 14.3987 35.1889V32.7891C14.3948 32.7616 14.3895 32.7344 14.3827 32.7075C15.3565 32.1516 16.1665 31.3489 16.731 30.3801C17.2956 29.4113 17.5948 28.3109 17.5984 27.1896C17.5883 26.9215 17.561 26.6543 17.5168 26.3897H19.6782C20.2198 27.7047 21.1841 28.8018 22.4187 29.5078C22.4103 29.5346 22.4033 29.5618 22.3979 29.5894V31.9892C22.3979 32.0036 22.3979 32.0163 22.3979 32.0291ZM11.199 31.9892C10.0356 31.9856 8.91325 31.5587 8.04153 30.7883C7.16981 30.0178 6.60828 28.9565 6.4618 27.8023C8.36196 27.7554 10.2377 27.3629 11.9973 26.6441C13.2535 27.19 14.5873 27.536 15.9505 27.6696C15.834 28.8501 15.2836 29.9455 14.4058 30.7435C13.528 31.5415 12.3853 31.9854 11.199 31.9892ZM12.7988 33.3618V35.1889C12.7988 35.6132 12.6303 36.0201 12.3302 36.3201C12.0302 36.6202 11.6233 36.7887 11.199 36.7887C10.7746 36.7887 10.3677 36.6202 10.0677 36.3201C9.76766 36.0201 9.5991 35.6132 9.5991 35.1889V33.3618C10.1205 33.5056 10.6582 33.582 11.199 33.589C11.7398 33.582 12.2774 33.5056 12.7988 33.3618ZM19.2798 24.7898H17.1184C16.4939 23.2591 15.3031 22.0282 13.7939 21.3533C14.0098 18.7865 14.4727 16.2464 15.1762 13.7684C18.3601 14.2561 21.5725 14.5351 24.7929 14.6036V17.6705C23.2513 17.8631 21.8327 18.6111 20.8029 19.7743C19.7731 20.9376 19.2026 22.4363 19.1982 23.9899C19.2083 24.258 19.2356 24.5252 19.2798 24.7898ZM15.8385 26.0345C14.6468 25.9194 13.4863 25.5865 12.4148 25.0522C12.289 24.975 12.1442 24.9341 11.9965 24.9341C11.8488 24.9341 11.704 24.975 11.5781 25.0522C9.98489 25.7902 8.25426 26.1848 6.49859 26.2105C6.7193 25.1473 7.29469 24.1907 8.13043 23.4974C8.96618 22.8041 10.0127 22.4154 11.0983 22.395C12.184 22.3745 13.2444 22.7235 14.1056 23.3848C14.9669 24.0461 15.5779 24.9804 15.8385 26.0345ZM6.23942 23.19C5.92499 22.8489 5.71689 22.4236 5.64062 21.966C5.56435 21.5085 5.62324 21.0386 5.81005 20.6141C5.99686 20.1895 6.30349 19.8286 6.69235 19.5758C7.08121 19.3229 7.5354 19.1889 7.99925 19.1903C8.5088 19.1925 9.00416 19.3583 9.41232 19.6634C9.82048 19.9684 10.1198 20.3965 10.2662 20.8846C8.68152 21.1185 7.24343 21.9418 6.23942 23.19ZM35.5567 25.3818C35.9168 24.491 36.5368 23.7292 37.3358 23.1957C38.1349 22.6622 39.0761 22.3815 40.0368 22.3903C40.9976 22.3991 41.9335 22.697 42.7227 23.2451C43.5118 23.7932 44.1177 24.5661 44.4615 25.4634L40.4378 24.3227C39.5832 24.0801 38.6722 24.1279 37.8477 24.4587L35.5567 25.3818ZM49.565 24.7898H45.9157C45.5138 23.8021 44.8719 22.9302 44.0481 22.253C43.2243 21.5759 42.2446 21.1149 41.1978 20.9118C41.0776 20.8352 40.9387 20.7932 40.7962 20.7902H40.3802C40.3369 20.795 40.2941 20.8036 40.2522 20.8158C40.1659 20.8158 40.0843 20.7902 39.9963 20.7902C39.6479 20.7968 39.3006 20.8321 38.958 20.8958C38.7363 18.5318 38.3124 16.1912 37.6909 13.8996C38.4252 13.794 39.1611 13.6885 39.8571 13.5605C41.7613 13.2337 43.6384 12.7647 45.4726 12.1574C48.0072 15.8948 49.4266 20.2761 49.565 24.7898ZM42.5656 8.62173C43.2473 9.30906 43.8853 10.0384 44.4758 10.8055C42.8712 11.3064 41.2353 11.7008 39.5787 11.9862C38.83 12.1238 38.0397 12.239 37.2445 12.351C36.1938 8.50395 34.1096 5.01816 31.2179 2.27192C35.5161 3.2952 39.4451 5.49371 42.5656 8.62173ZM26.3975 1.64958C30.1108 2.16313 33.5521 6.22355 35.6255 12.551C32.7296 12.8793 29.8175 13.0433 26.9031 13.0421C26.7335 13.0421 26.5671 13.0341 26.3975 13.0325V1.64958ZM26.3975 14.634C26.5671 14.634 26.7335 14.6436 26.9031 14.6436C29.9746 14.6458 33.0436 14.4679 36.0942 14.1108C36.7506 16.4797 37.1866 18.9042 37.3965 21.3533C35.8891 22.0292 34.7002 23.26 34.0768 24.7898H31.9154C31.9597 24.5252 31.9869 24.258 31.997 23.9899C31.9951 22.502 31.4747 21.0613 30.5255 19.9156C29.5763 18.7699 28.2575 17.9907 26.7959 17.7121C26.6766 17.6361 26.5389 17.594 26.3975 17.5905V14.634ZM30.0628 22.2621L26.0392 21.1214C25.1844 20.8795 24.2737 20.9274 23.449 21.2574L21.158 22.1821C21.5182 21.2913 22.1381 20.5295 22.9372 19.996C23.7362 19.4625 24.6774 19.1818 25.6382 19.1906C26.599 19.1994 27.5349 19.4973 28.324 20.0454C29.1132 20.5935 29.7191 21.3664 30.0628 22.2637V22.2621ZM24.7977 1.65118V13.0101C21.7392 12.9423 18.688 12.681 15.6625 12.2278C17.7407 6.09076 21.1468 2.15673 24.7977 1.65118ZM8.62959 8.62173C11.7498 5.4974 15.6769 3.30176 19.9725 2.27992C17.1714 4.91519 15.1321 8.25655 14.0691 11.9526C13.1988 11.7926 12.3524 11.6166 11.5589 11.4215C10.1119 11.0866 8.69707 10.6257 7.33052 10.044C7.72728 9.57204 8.14804 9.10168 8.62959 8.62173ZM6.32421 11.3415C7.88462 12.047 9.51107 12.5963 11.1798 12.9813C11.9461 13.1701 12.7636 13.3397 13.6019 13.4981C12.9242 15.9193 12.467 18.3969 12.2357 20.9006C12.1173 20.8814 11.9957 20.8766 11.8757 20.8638C11.8862 20.7746 11.8813 20.6842 11.8613 20.5966C11.6103 19.6637 11.0302 18.8532 10.228 18.3148C9.42589 17.7764 8.45599 17.5465 7.49754 17.6676C6.53908 17.7887 5.65686 18.2527 5.01389 18.9737C4.37091 19.6947 4.01063 20.6241 3.99963 21.5901C4.00725 22.1557 4.13351 22.7134 4.37024 23.227C4.60697 23.7407 4.94889 24.199 5.3739 24.5722C5.3403 24.6458 5.3067 24.7162 5.27631 24.7898H1.63345C1.79944 19.9343 3.43448 15.2434 6.32261 11.3367L6.32421 11.3415ZM1.62545 26.3897H4.88115C4.8369 26.6543 4.80965 26.9215 4.79955 27.1896C4.80314 28.3109 5.1023 29.4113 5.66687 30.3801C6.23144 31.3489 7.04146 32.1516 8.01525 32.7075C8.00843 32.7344 8.00309 32.7616 7.99925 32.7891V35.1889C7.99925 35.2033 7.99925 35.216 7.99925 35.2288C6.67224 35.3495 5.3905 35.7725 4.2524 36.4655C2.6443 33.3418 1.74721 29.9009 1.62545 26.3897ZM14.3987 40.7883V46.3878H1.59985V43.988C1.60646 42.1413 2.3225 40.3677 3.59993 39.034C4.87735 37.7003 6.61845 36.9085 8.46321 36.8223C8.74309 37.2995 9.14288 37.6952 9.62292 37.9702C10.103 38.2451 10.6465 38.3898 11.1998 38.3898C11.753 38.3898 12.2966 38.2451 12.7766 37.9702C13.2566 37.6952 13.6564 37.2995 13.9363 36.8223C14.3834 36.8438 14.8275 36.9075 15.2626 37.0127C14.6955 38.1907 14.4002 39.481 14.3987 40.7883ZM35.1967 46.3878H15.9985V40.7883C16.0051 38.9416 16.7212 37.168 17.9986 35.8343C19.276 34.5006 21.0171 33.7088 22.8619 33.6226C23.1422 34.099 23.542 34.494 24.0218 34.7684C24.5017 35.0428 25.0449 35.1872 25.5976 35.1872C26.1504 35.1872 26.6935 35.0428 27.1734 34.7684C27.6532 34.494 28.0531 34.099 28.3334 33.6226C30.1781 33.7088 31.9192 34.5006 33.1966 35.8343C34.4741 37.168 35.1901 38.9416 35.1967 40.7883V46.3878ZM49.5954 46.3878H36.7966V40.7883C36.7952 39.4804 36.5 38.1895 35.9326 37.0111C36.3677 36.9059 36.8118 36.8422 37.2589 36.8207C37.5388 37.2979 37.9386 37.6936 38.4186 37.9686C38.8987 38.2435 39.4423 38.3882 39.9955 38.3882C40.5487 38.3882 41.0923 38.2435 41.5723 37.9686C42.0523 37.6936 42.4521 37.2979 42.732 36.8207C44.577 36.9069 46.3184 37.6989 47.5958 39.033C48.8733 40.367 49.5892 42.141 49.5954 43.988V46.3878Z" fill="#5A189A"/>
</svg>
