<svg width="52" height="39" viewBox="0 0 52 39" fill="none" xmlns="http://www.w3.org/2000/svg">
<path d="M40.7962 15.1986H37.5965C37.3843 15.1986 37.1809 15.2829 37.0309 15.4329C36.8808 15.5829 36.7966 15.7864 36.7966 15.9985C36.7966 16.2107 36.8808 16.4141 37.0309 16.5641C37.1809 16.7142 37.3843 16.7984 37.5965 16.7984H39.1963V18.3983C39.1963 18.6104 39.2806 18.8139 39.4306 18.9639C39.5807 19.1139 39.7841 19.1982 39.9963 19.1982C40.2084 19.1982 40.4119 19.1139 40.5619 18.9639C40.7119 18.8139 40.7962 18.6104 40.7962 18.3983V16.7984C41.4327 16.7984 42.043 16.5456 42.4931 16.0956C42.9431 15.6455 43.196 15.0351 43.196 14.3987V12.7988C43.196 12.1624 42.9431 11.552 42.4931 11.1019C42.043 10.6519 41.4327 10.399 40.7962 10.399H39.1963C38.9842 10.399 38.7807 10.3148 38.6307 10.1647C38.4807 10.0147 38.3964 9.81126 38.3964 9.59911V7.99926C38.3964 7.78711 38.4807 7.58364 38.6307 7.43363C38.7807 7.28361 38.9842 7.19933 39.1963 7.19933H42.396C42.6082 7.19933 42.8117 7.11506 42.9617 6.96504C43.1117 6.81503 43.196 6.61156 43.196 6.39941C43.196 6.18725 43.1117 5.98379 42.9617 5.83378C42.8117 5.68376 42.6082 5.59948 42.396 5.59948H40.7962V3.99963C40.7962 3.78748 40.7119 3.58401 40.5619 3.434C40.4119 3.28398 40.2084 3.19971 39.9963 3.19971C39.7841 3.19971 39.5807 3.28398 39.4306 3.434C39.2806 3.58401 39.1963 3.78748 39.1963 3.99963V5.59948C38.5599 5.59948 37.9495 5.85232 37.4994 6.30236C37.0494 6.75241 36.7966 7.3628 36.7966 7.99926V9.59911C36.7966 10.2356 37.0494 10.846 37.4994 11.296C37.9495 11.7461 38.5599 11.9989 39.1963 11.9989H40.7962C41.0083 11.9989 41.2118 12.0832 41.3618 12.2332C41.5118 12.3832 41.5961 12.5867 41.5961 12.7988V14.3987C41.5961 14.6108 41.5118 14.8143 41.3618 14.9643C41.2118 15.1143 41.0083 15.1986 40.7962 15.1986ZM48.4115 27.3575L31.997 28.7285V26.7687C32.0028 25.5628 31.6167 24.3876 30.8968 23.4201C30.1769 22.4526 29.1622 21.7452 28.0054 21.4044L15.9057 17.7759C15.7693 17.2677 15.4695 16.8184 15.0527 16.4973C14.6358 16.1761 14.125 16.0009 13.5987 15.9985H0.799925C0.587772 15.9985 0.384308 16.0828 0.234293 16.2328C0.0842776 16.3828 0 16.5863 0 16.7984L0 34.3968C0 34.609 0.0842776 34.8124 0.234293 34.9624C0.384308 35.1124 0.587772 35.1967 0.799925 35.1967H13.5987C14.0557 35.1953 14.5028 35.0634 14.8874 34.8165C15.272 34.5697 15.5781 34.2181 15.7697 33.8033L28.5413 37.6349C30.2769 38.1585 32.1322 38.1305 33.8512 37.5549L49.4354 32.3602C50.0332 32.1625 50.5376 31.7522 50.8531 31.2073C51.1685 30.6624 51.2731 30.0206 51.1468 29.4038C51.0205 28.7869 50.6723 28.2378 50.1681 27.8606C49.664 27.4835 49.0389 27.3044 48.4115 27.3575ZM9.5991 33.5969H1.59985V17.5984H9.5991V33.5969ZM14.3987 32.7969C14.3987 33.0091 14.3144 33.2126 14.1644 33.3626C14.0143 33.5126 13.8109 33.5969 13.5987 33.5969H11.199V17.5984H13.5987C13.8109 17.5984 14.0143 17.6826 14.1644 17.8327C14.3144 17.9827 14.3987 18.1861 14.3987 18.3983V32.7969ZM48.9314 30.8403L33.3457 36.035C31.9392 36.5069 30.4209 36.5304 29.0005 36.1022L15.9985 32.2018V19.4734L27.5462 22.9371C28.3721 23.1812 29.0965 23.6867 29.6105 24.3776C30.1246 25.0685 30.4006 25.9075 30.3972 26.7687V28.415L23.4954 25.6536C23.3971 25.6104 23.2912 25.5873 23.1838 25.5859C23.0765 25.5845 22.97 25.6047 22.8706 25.6453C22.7712 25.6859 22.681 25.7461 22.6054 25.8223C22.5298 25.8985 22.4703 25.9891 22.4304 26.0888C22.3906 26.1885 22.3712 26.2952 22.3734 26.4025C22.3757 26.5099 22.3995 26.6156 22.4435 26.7136C22.4875 26.8115 22.5507 26.8996 22.6295 26.9725C22.7082 27.0455 22.8009 27.1019 22.9019 27.1383L30.9011 30.338H30.9219C30.9608 30.3484 31.0003 30.3559 31.0403 30.3604C31.0925 30.3758 31.1461 30.386 31.2003 30.3908C31.2099 30.3908 31.2179 30.3908 31.2275 30.3828C31.2371 30.3748 31.2531 30.3828 31.2675 30.3828L48.5459 28.9429C48.7834 28.9211 49.0207 28.9877 49.2122 29.1299C49.4038 29.2721 49.5362 29.4799 49.5841 29.7136C49.632 29.9473 49.5921 30.1904 49.472 30.3966C49.3519 30.6027 49.16 30.7572 48.933 30.8307L48.9314 30.8403ZM39.9963 22.3979C42.2112 22.3979 44.3764 21.7411 46.2181 20.5106C48.0597 19.28 49.4951 17.531 50.3428 15.4846C51.1904 13.4383 51.4122 11.1865 50.98 9.01415C50.5479 6.84177 49.4813 4.84631 47.9151 3.2801C46.3489 1.7139 44.3535 0.647304 42.1811 0.21519C40.0087 -0.216924 37.757 0.00485232 35.7106 0.852475C33.6643 1.7001 31.9152 3.1355 30.6847 4.97715C29.4541 6.81881 28.7973 8.98402 28.7973 11.199C28.8007 14.1681 29.9817 17.0146 32.0812 19.1141C34.1806 21.2136 37.0272 22.3945 39.9963 22.3979ZM39.9963 1.59986C41.8948 1.59986 43.7507 2.16283 45.3292 3.2176C46.9078 4.27236 48.1382 5.77154 48.8647 7.52554C49.5912 9.27955 49.7813 11.2096 49.4109 13.0717C49.0405 14.9337 48.1263 16.6441 46.7839 17.9866C45.4414 19.329 43.731 20.2432 41.869 20.6136C40.0069 20.984 38.0769 20.7939 36.3228 20.0674C34.5688 19.3408 33.0697 18.1105 32.0149 16.5319C30.9601 14.9534 30.3972 13.0975 30.3972 11.199C30.4001 8.65403 31.4124 6.21418 33.212 4.41464C35.0115 2.6151 37.4513 1.60282 39.9963 1.59986Z" fill="#5A189A"/>
</svg>
