<svg width="51" height="61" viewBox="0 0 51 61" fill="none" xmlns="http://www.w3.org/2000/svg">
<path d="M24.2805 25.2815H26.223C26.7381 25.2815 27.2322 25.4862 27.5965 25.8505C27.9607 26.2147 28.1654 26.7088 28.1654 27.224C28.1654 27.4816 28.2677 27.7286 28.4499 27.9107C28.632 28.0929 28.879 28.1952 29.1366 28.1952C29.3942 28.1952 29.6412 28.0929 29.8234 27.9107C30.0055 27.7286 30.1078 27.4816 30.1078 27.224C30.1078 26.1936 29.6985 25.2055 28.97 24.4769C28.2414 23.7484 27.2533 23.3391 26.223 23.3391V22.3679C26.223 22.1103 26.1206 21.8633 25.9385 21.6811C25.7564 21.499 25.5093 21.3967 25.2517 21.3967C24.9942 21.3967 24.7471 21.499 24.565 21.6811C24.3828 21.8633 24.2805 22.1103 24.2805 22.3679V23.3391C23.2502 23.3391 22.2621 23.7484 21.5335 24.4769C20.8049 25.2055 20.3956 26.1936 20.3956 27.224C20.3956 28.2543 20.8049 29.2424 21.5335 29.971C22.2621 30.6995 23.2502 31.1088 24.2805 31.1088H26.223C26.7381 31.1088 27.2322 31.3135 27.5965 31.6778C27.9607 32.042 28.1654 32.5361 28.1654 33.0513C28.1654 33.5664 27.9607 34.0605 27.5965 34.4248C27.2322 34.7891 26.7381 34.9937 26.223 34.9937H24.2805C23.7654 34.9937 23.2713 34.7891 22.907 34.4248C22.5427 34.0605 22.3381 33.5664 22.3381 33.0513C22.3381 32.7937 22.2358 32.5467 22.0536 32.3645C21.8715 32.1824 21.6244 32.0801 21.3669 32.0801C21.1093 32.0801 20.8622 32.1824 20.6801 32.3645C20.498 32.5467 20.3956 32.7937 20.3956 33.0513C20.3956 34.0816 20.8049 35.0697 21.5335 35.7983C22.2621 36.5268 23.2502 36.9361 24.2805 36.9361V37.9074C24.2805 38.1649 24.3828 38.412 24.565 38.5941C24.7471 38.7763 24.9942 38.8786 25.2517 38.8786C25.5093 38.8786 25.7564 38.7763 25.9385 38.5941C26.1206 38.412 26.223 38.1649 26.223 37.9074V36.9361C27.2533 36.9361 28.2414 36.5268 28.97 35.7983C29.6985 35.0697 30.1078 34.0816 30.1078 33.0513C30.1078 32.0209 29.6985 31.0328 28.97 30.3043C28.2414 29.5757 27.2533 29.1664 26.223 29.1664H24.2805C23.7654 29.1664 23.2713 28.9618 22.907 28.5975C22.5427 28.2332 22.3381 27.7391 22.3381 27.224C22.3381 26.7088 22.5427 26.2147 22.907 25.8505C23.2713 25.4862 23.7654 25.2815 24.2805 25.2815ZM42.3316 14.5981C39.151 13.9722 36.0766 12.8935 33.2021 11.3951C31.0044 10.2465 28.94 8.85898 27.0465 7.25767C26.545 6.82922 25.9105 6.58788 25.251 6.57478C24.5915 6.56167 23.9479 6.77761 23.4297 7.1858C21.4898 8.69123 19.4163 10.0163 17.2353 11.1445C14.3221 12.6506 11.2361 13.7961 8.04564 14.5554C7.4114 14.7074 6.84714 15.0693 6.44446 15.5823C6.04178 16.0954 5.82432 16.7295 5.82738 17.3816V29.1101C5.85598 34.6792 7.76097 40.0761 11.2347 44.4292C14.7084 48.7823 19.5481 51.8374 24.972 53.1011C25.1318 53.1478 25.3008 53.1538 25.4635 53.1186C30.9031 51.8677 35.7605 48.8158 39.2479 44.4579C42.7354 40.0999 44.6482 34.6916 44.6761 29.1101V17.4555C44.676 16.7815 44.4424 16.1285 44.0149 15.6075C43.5874 15.0865 42.9925 14.7298 42.3316 14.5981ZM42.7337 29.1101C42.7077 34.2129 40.9713 39.1595 37.8019 43.1589C34.6326 47.1582 30.2136 49.9791 25.2517 51.1703C20.29 49.9788 15.8712 47.1578 12.7019 43.1586C9.53268 39.1593 7.79606 34.2128 7.76982 29.1101V17.3816C7.76791 17.1666 7.83859 16.9572 7.97042 16.7873C8.10225 16.6174 8.28752 16.497 8.49629 16.4454C11.8401 15.6487 15.0746 14.4485 18.1288 12.8713C20.415 11.6879 22.5885 10.2984 24.6224 8.72033C24.7897 8.58992 24.9968 8.52089 25.2089 8.52478C25.421 8.52866 25.6254 8.60524 25.7878 8.7417C27.7914 10.4345 29.9748 11.9021 32.2989 13.118C35.3395 14.7026 38.592 15.8421 41.9567 16.5017C42.1766 16.544 42.3747 16.6619 42.5167 16.8351C42.6586 17.0083 42.7354 17.2257 42.7337 17.4496V29.1101ZM25.2517 17.5118C22.7546 17.5118 20.3135 18.2523 18.2372 19.6396C16.1609 21.027 14.5426 22.9989 13.587 25.3059C12.6314 27.613 12.3813 30.1516 12.8685 32.6008C13.3557 35.05 14.5582 37.2997 16.3239 39.0654C18.0897 40.8312 20.3394 42.0337 22.7886 42.5208C25.2377 43.008 27.7764 42.758 30.0834 41.8024C32.3905 40.8467 34.3624 39.2285 35.7497 37.1522C37.1371 35.0758 37.8776 32.6348 37.8776 30.1376C37.8735 26.7903 36.5419 23.5813 34.175 21.2144C31.8081 18.8474 28.5991 17.5159 25.2517 17.5118ZM25.2517 40.821C23.1388 40.821 21.0732 40.1944 19.3164 39.0205C17.5595 37.8466 16.1902 36.1781 15.3816 34.226C14.573 32.2738 14.3614 30.1258 14.7736 28.0534C15.1858 25.981 16.2033 24.0774 17.6974 22.5833C19.1915 21.0892 21.0951 20.0717 23.1675 19.6595C25.2399 19.2473 27.388 19.4589 29.3401 20.2675C31.2922 21.0761 32.9607 22.4454 34.1347 24.2022C35.3086 25.9591 35.9351 28.0246 35.9351 30.1376C35.9315 32.9699 34.8048 35.6852 32.8021 37.6879C30.7993 39.6907 28.084 40.8174 25.2517 40.821ZM48.1395 10.2646C43.7589 9.45107 39.524 7.98987 35.5738 5.92905C32.9412 4.55112 30.4517 2.91534 28.1421 1.04577C27.3023 0.379038 26.2643 0.0111545 25.1921 0.000249599C24.1199 -0.0106553 23.0747 0.33604 22.2215 0.985551C19.8898 2.72018 17.4213 4.26299 14.8403 5.59883C10.8488 7.66127 6.61326 9.21254 2.23388 10.216C1.59541 10.3631 1.02617 10.7235 0.620071 11.2376C0.213971 11.7518 -0.00472113 12.389 7.73131e-05 13.0442V28.9722C0.0375168 36.2359 2.52425 43.2746 7.05805 48.9498C11.5918 54.6249 17.9076 58.6047 24.9837 60.2454C25.0709 60.2699 25.1611 60.2823 25.2517 60.2823C25.3229 60.2821 25.3939 60.2743 25.4635 60.259C32.5527 58.6297 38.8836 54.6529 43.4288 48.9737C47.9741 43.2945 50.4671 36.2462 50.5034 28.9722V13.1199C50.5046 12.4429 50.269 11.7868 49.8372 11.2653C49.4054 10.7437 48.8048 10.3897 48.1395 10.2646ZM48.561 28.9722C48.5238 35.7658 46.2059 42.3501 41.9791 47.6689C37.7523 52.9876 31.8615 56.7326 25.2517 58.3029C18.6421 56.7323 12.7515 52.9872 8.52477 47.6686C4.298 42.3499 1.97999 35.7657 1.94251 28.9722V13.0442C1.93932 12.828 2.00995 12.6173 2.14274 12.4467C2.27554 12.2761 2.46254 12.1559 2.67287 12.106C7.20966 11.0663 11.5977 9.46023 15.7338 7.32566C18.4072 5.94064 20.9641 4.34132 23.3792 2.54338C23.8862 2.15174 24.5092 1.94026 25.1498 1.94237C25.7904 1.94448 26.412 2.16006 26.9164 2.55504C29.3265 4.50533 31.9239 6.21201 34.6706 7.65005C38.7928 9.8004 43.2125 11.3245 47.784 12.172C48.0048 12.2125 48.204 12.3299 48.3463 12.5035C48.4886 12.6771 48.5646 12.8955 48.561 13.1199V28.9722Z" fill="#5A189A"/>
</svg>
