<svg width="23" height="23" viewBox="0 0 23 23" fill="none" xmlns="http://www.w3.org/2000/svg">
<path d="M20.2879 1.97408C19.601 1.85576 18.9054 1.79485 18.2083 1.792C15.8301 1.79005 13.5015 2.472 11.5 3.75658C9.4934 2.48887 7.16513 1.82365 4.79168 1.83991C4.09463 1.84277 3.39903 1.90367 2.71209 2.022C2.48708 2.06079 2.28332 2.17864 2.13749 2.35434C1.99166 2.53003 1.91336 2.75202 1.91668 2.98033V14.4803C1.91462 14.6211 1.94363 14.7607 2.00163 14.889C2.05963 15.0173 2.14521 15.1313 2.25226 15.2228C2.35931 15.3143 2.48521 15.3811 2.62101 15.4184C2.7568 15.4557 2.89915 15.4626 3.03793 15.4387C4.41124 15.2009 5.81824 15.2403 7.17607 15.5547C8.5339 15.8691 9.81509 16.452 10.9442 17.2691L11.0592 17.3362H11.1646C11.2709 17.3804 11.3849 17.4032 11.5 17.4032C11.6151 17.4032 11.7291 17.3804 11.8354 17.3362H11.9408L12.0558 17.2691C13.1771 16.4337 14.4546 15.8319 15.8127 15.4994C17.1707 15.1669 18.5818 15.1104 19.9621 15.3332C20.1009 15.3572 20.2432 15.3503 20.379 15.313C20.5148 15.2757 20.6407 15.2089 20.7478 15.1174C20.8548 15.0259 20.9404 14.9119 20.9984 14.7836C21.0564 14.6553 21.0854 14.5157 21.0833 14.3749V2.87491C21.0734 2.65656 20.9891 2.44818 20.8444 2.28433C20.6997 2.12048 20.5034 2.01101 20.2879 1.97408ZM10.5417 14.7103C8.76865 13.7776 6.79509 13.2908 4.79168 13.292C4.47543 13.292 4.15918 13.292 3.83334 13.292V3.70866C4.15252 3.69027 4.4725 3.69027 4.79168 3.70866C6.83617 3.7064 8.83605 4.30637 10.5417 5.43366V14.7103ZM19.1667 13.3303C18.8408 13.3303 18.5246 13.3303 18.2083 13.3303C16.2049 13.3291 14.2314 13.8159 12.4583 14.7487V5.43366C14.164 4.30637 16.1638 3.7064 18.2083 3.70866C18.5275 3.69027 18.8475 3.69027 19.1667 3.70866V13.3303ZM20.2879 17.3074C19.601 17.1891 18.9054 17.1282 18.2083 17.1253C15.8301 17.1234 13.5015 17.8053 11.5 19.0899C9.49855 17.8053 7.16991 17.1234 4.79168 17.1253C4.09463 17.1282 3.39903 17.1891 2.71209 17.3074C2.58734 17.3272 2.46774 17.3715 2.36016 17.4377C2.25257 17.5038 2.15914 17.5906 2.08522 17.6931C2.01129 17.7955 1.95835 17.9115 1.92943 18.0345C1.9005 18.1574 1.89617 18.2849 1.91668 18.4095C1.96538 18.6584 2.11073 18.8778 2.32089 19.0197C2.53105 19.1616 2.78889 19.2144 3.03793 19.1666C4.41124 18.9288 5.81824 18.9683 7.17607 19.2826C8.5339 19.597 9.81509 20.1799 10.9442 20.997C11.1065 21.1126 11.3008 21.1747 11.5 21.1747C11.6993 21.1747 11.8935 21.1126 12.0558 20.997C13.1849 20.1799 14.4661 19.597 15.8239 19.2826C17.1818 18.9683 18.5888 18.9288 19.9621 19.1666C20.2111 19.2144 20.469 19.1616 20.6791 19.0197C20.8893 18.8778 21.0346 18.6584 21.0833 18.4095C21.1039 18.2849 21.0995 18.1574 21.0706 18.0345C21.0417 17.9115 20.9887 17.7955 20.9148 17.6931C20.8409 17.5906 20.7474 17.5038 20.6399 17.4377C20.5323 17.3715 20.4127 17.3272 20.2879 17.3074Z" fill="#5A189A"/>
</svg>
