<svg width="23" height="23" viewBox="0 0 23 23" fill="none" xmlns="http://www.w3.org/2000/svg">
<path d="M10.5417 1.91675C8.64628 1.91675 6.79344 2.4788 5.21747 3.53183C3.6415 4.58486 2.41318 6.08157 1.68784 7.8327C0.962496 9.58382 0.772714 11.5107 1.14249 13.3697C1.51226 15.2287 2.42499 16.9363 3.76524 18.2765C5.10549 19.6168 6.81308 20.5295 8.67207 20.8993C10.5311 21.269 12.4579 21.0793 14.2091 20.3539C15.9602 19.6286 17.4569 18.4003 18.5099 16.8243C19.563 15.2483 20.125 13.3955 20.125 11.5001C20.125 10.2416 19.8771 8.9954 19.3955 7.8327C18.9139 6.66999 18.208 5.61354 17.3181 4.72364C16.4282 3.83375 15.3718 3.12784 14.2091 2.64624C13.0464 2.16463 11.8002 1.91675 10.5417 1.91675ZM10.5417 19.1667C9.02536 19.1667 7.54309 18.7171 6.28231 17.8747C5.02153 17.0323 4.03888 15.8349 3.4586 14.434C2.87833 13.0331 2.72651 11.4916 3.02233 10.0044C3.31815 8.5172 4.04833 7.15113 5.12053 6.07893C6.19273 5.00673 7.5588 4.27655 9.04599 3.98073C10.5332 3.68491 12.0747 3.83673 13.4756 4.41701C14.8765 4.99728 16.0739 5.97993 16.9163 7.24071C17.7587 8.50149 18.2083 9.98376 18.2083 11.5001C18.2083 13.5334 17.4006 15.4835 15.9628 16.9212C14.5251 18.359 12.575 19.1667 10.5417 19.1667ZM13.5125 12.1038L11.5 10.9442V6.70841C11.5 6.45425 11.399 6.21049 11.2193 6.03077C11.0396 5.85105 10.7958 5.75008 10.5417 5.75008C10.2875 5.75008 10.0438 5.85105 9.86404 6.03077C9.68431 6.21049 9.58335 6.45425 9.58335 6.70841V11.5001C9.58335 11.5001 9.58335 11.5767 9.58335 11.6151C9.58902 11.6811 9.6052 11.7458 9.63126 11.8067C9.651 11.8636 9.6767 11.9182 9.70793 11.9697C9.73416 12.0241 9.76629 12.0756 9.80376 12.123L9.9571 12.2476L10.0433 12.3338L12.535 13.7713C12.6811 13.8541 12.8463 13.8971 13.0142 13.8959C13.2264 13.8974 13.4331 13.8284 13.6018 13.6998C13.7706 13.5711 13.8919 13.3901 13.9467 13.1851C14.0015 12.9802 13.9867 12.7628 13.9047 12.5671C13.8226 12.3714 13.678 12.2084 13.4933 12.1038H13.5125Z" fill="#5A189A"/>
</svg>
