<svg width="239" height="189" viewBox="0 0 239 189" fill="none" xmlns="http://www.w3.org/2000/svg">
<g opacity="0.15">
<path opacity="0.25" d="M0.73938 171.91C0.73938 165.247 6.14054 159.846 12.8032 159.846C19.4659 159.846 24.867 165.247 24.867 171.91V189H0.73938V171.91Z" fill="#FAFAFA"/>
<path opacity="0.5" d="M15.8192 152.306C15.8192 137.593 27.7467 125.665 42.4601 125.665C57.1735 125.665 69.1011 137.593 69.1011 152.306V189H15.8192V152.306Z" fill="#FAFAFA"/>
<path opacity="0.75" d="M51.0053 127.675C51.0053 103.246 70.8096 83.4414 95.2394 83.4414C119.669 83.4414 139.473 103.246 139.473 127.675V189H51.0053V127.675Z" fill="#FAFAFA"/>
<path d="M113.335 62.8324C113.335 28.131 141.466 0 176.168 0C210.869 0 239 28.131 239 62.8324V189H113.335V62.8324Z" fill="#FAFAFA" fill-opacity="0.5"/>
</g>
</svg>
